<svg width="13" height="18" viewBox="0 0 13 18" fill="none" xmlns="http://www.w3.org/2000/svg">
<path d="M0.320312 12.3203H2.82031V17.3203H0.320312V12.3203ZM12.8203 0.992188C12.7682 2.21615 12.4557 3.28385 11.8828 4.19531C11.3099 5.08073 10.5156 5.67969 9.5 5.99219V17.3203H7.82031V12.3203H6.17969V17.3203H4.5V7.39844C4.26562 7.47656 4.09635 7.56771 3.99219 7.67188C3.21094 8.29688 2.82031 9.15625 2.82031 10.25V10.6797H1.17969V10.25C1.17969 8.60938 1.76562 7.28125 2.9375 6.26562C4.10938 5.30208 5.46354 4.82031 7 4.82031C8.17188 4.82031 9.13542 4.53385 9.89062 3.96094C10.75 3.25781 11.1797 2.29427 11.1797 1.07031V0.679688H12.8203V0.992188ZM8.17188 3.49219C7.83333 3.83073 7.44271 4 7 4C6.55729 4 6.16667 3.83073 5.82812 3.49219C5.48958 3.15365 5.32031 2.76302 5.32031 2.32031C5.32031 1.8776 5.48958 1.5 5.82812 1.1875C6.16667 0.848958 6.55729 0.679688 7 0.679688C7.44271 0.679688 7.83333 0.848958 8.17188 1.1875C8.51042 1.5 8.67969 1.8776 8.67969 2.32031C8.67969 2.76302 8.51042 3.15365 8.17188 3.49219Z" fill="black"/>
</svg>
