<svg width="20" height="20" viewBox="0 0 20 20" fill="none" xmlns="http://www.w3.org/2000/svg">
<path d="M18.1898 0.792236H1.80859C1.53923 0.792236 1.28091 0.899239 1.09044 1.08971C0.899972 1.28017 0.792969 1.5385 0.792969 1.80786V18.1907C0.792969 18.46 0.899972 18.7184 1.09044 18.9088C1.28091 19.0993 1.53923 19.2063 1.80859 19.2063H10.6242V12.0766H8.22734V9.29692H10.6242V7.24692C10.6242 4.8688 12.0773 3.57349 14.1992 3.57349C14.9153 3.57093 15.6309 3.60745 16.343 3.68286V6.1688H14.8758C13.7211 6.1688 13.4977 6.71724 13.4977 7.52192V9.29692H16.2492L15.8914 12.0766H13.4977V19.2079H18.1852C18.4544 19.2074 18.7125 19.1003 18.9029 18.9099C19.0932 18.7196 19.2004 18.4615 19.2008 18.1922V1.80942C19.2012 1.5406 19.095 1.28258 18.9055 1.09191C18.716 0.901241 18.4587 0.793477 18.1898 0.792236Z" fill="black"/>
</svg>
