<svg width="24" height="20" viewBox="0 0 24 20" fill="none" xmlns="http://www.w3.org/2000/svg">
<path d="M13.7105 15.2993C13.6876 15.2993 13.6646 15.2985 13.6415 15.297C13.2106 15.2693 12.8441 14.9861 12.7078 14.5755L10.5181 7.95412L8.66334 12.3325C8.50903 12.6969 8.16839 12.9426 7.77445 12.9735C7.38033 13.0042 7.00613 12.8151 6.79692 12.4795L4.78969 9.26775C4.48786 8.78475 4.63467 8.14856 5.11767 7.84673C5.60063 7.54495 6.23686 7.69167 6.53873 8.17472L7.51973 9.74442L9.66291 4.6852C9.8333 4.28283 10.2404 4.02445 10.6769 4.0418C11.1131 4.05942 11.4986 4.35033 11.636 4.76559L13.884 11.5633L15.4497 8.31966C15.653 7.91531 16.0667 7.6688 16.5134 7.68295L18.81 7.71281C19.3795 7.72022 19.8352 8.18789 19.8278 8.75737C19.8204 9.32681 19.3524 9.7829 18.7832 9.77512L17.048 9.75262L14.6592 14.7022C14.4818 15.0702 14.1145 15.2993 13.7105 15.2993ZM12.802 13.8052C12.8018 13.8055 12.8016 13.8059 12.8015 13.8062L12.802 13.8052ZM8.54545 11.3856L8.54663 11.3875C8.54625 11.3869 8.54583 11.3863 8.54545 11.3856ZM19.4601 18.2624C19.4601 17.6929 18.9984 17.2312 18.4289 17.2312H5.57114C3.63647 17.2312 2.0625 15.6579 2.0625 13.7242V5.56941C2.0625 3.63567 3.63647 2.0625 5.57114 2.0625H18.4289C20.3635 2.0625 21.9375 3.63572 21.9375 5.56941V13.7242C21.9375 14.1592 21.8591 14.5831 21.7045 14.9843C21.4997 15.5158 21.7645 16.1126 22.2959 16.3174C22.8276 16.5223 23.4242 16.2574 23.629 15.726C23.8751 15.0872 24 14.4137 24 13.7242V5.56941C24 2.49839 21.5008 6.59582e-10 18.4288 6.59582e-10H5.57114C2.49919 -4.68743e-05 0 2.49839 0 5.56936V13.7242C0 16.7952 2.49919 19.2937 5.57114 19.2937H18.4289C18.9984 19.2937 19.4601 18.8319 19.4601 18.2624Z" fill="#44CA82"/>
<path d="M21.4219 18.9395C21.9914 18.9395 22.4531 18.4778 22.4531 17.9083C22.4531 17.3387 21.9914 16.877 21.4219 16.877C20.8523 16.877 20.3906 17.3387 20.3906 17.9083C20.3906 18.4778 20.8523 18.9395 21.4219 18.9395Z" fill="#44CA82"/>
</svg>
