<svg width="75" height="74" viewBox="0 0 75 74" fill="none" xmlns="http://www.w3.org/2000/svg">
<path d="M55.4349 0.566681H29.9443C19.9721 0.566681 11.7323 8.1328 10.6418 17.8349C4.36415 21.0636 0.059082 27.6168 0.059082 35.1584V51.8017C0.059082 63.7014 9.72331 73.3826 21.6024 73.3826H42.6894C44.4645 73.3826 45.9036 71.9435 45.9036 70.1684C45.9036 68.3934 44.4645 66.9543 42.6894 66.9543H21.6024C13.2679 66.9543 6.48739 60.1569 6.48739 51.8017V35.1584C6.48739 29.7886 9.7442 25.1674 14.3815 23.1746C14.727 23.1037 15.0519 22.9766 15.3473 22.8044C16.6478 22.3654 18.0393 22.1272 19.4854 22.1272H44.976C52.1431 22.1272 57.974 27.973 57.974 35.1584V50.9475C57.974 53.2484 57.4985 55.4676 56.5605 57.5435C56.0222 58.7348 55.3362 59.8604 54.5219 60.889C53.42 62.2806 53.6548 64.3022 55.0467 65.404C56.4381 66.5061 58.46 66.271 59.5617 64.8793C60.7026 63.4384 61.6637 61.8609 62.4186 60.1903C63.3398 58.1515 63.942 56.0162 64.2212 53.8148C64.3771 53.7922 64.5331 53.7581 64.6884 53.7115C68.9955 52.4187 71.6678 47.735 72.8775 45.0582C74.1938 42.145 74.8612 39.0351 74.8612 35.8153V20.0262C74.8612 9.29617 66.1466 0.566681 55.4349 0.566681ZM68.4329 35.8154C68.4329 38.1165 67.9573 40.3355 67.0194 42.4114C66.2582 44.0957 65.3157 45.5355 64.4023 46.4715V35.1586C64.4023 24.4286 55.6878 15.6991 44.976 15.6991H19.4854C18.8674 15.6991 18.2565 15.7294 17.6531 15.7863C19.4119 10.6762 24.2571 6.99513 29.9441 6.99513H55.4349C62.602 6.99513 68.4329 12.8409 68.4329 20.0263V35.8154ZM29.0166 51.9778V47.4584H24.5129C22.7379 47.4584 21.2988 46.0193 21.2988 44.2443C21.2988 42.4692 22.7379 41.0301 24.5129 41.0301H29.0166V36.5106C29.0166 34.7355 30.4556 33.2964 32.2307 33.2964C34.0058 33.2964 35.4449 34.7355 35.4449 36.5106V41.0301H39.9485C41.7236 41.0301 43.1626 42.4692 43.1626 44.2443C43.1626 46.0193 41.7236 47.4584 39.9485 47.4584H35.4449V51.9778C35.4449 53.7529 34.0058 55.1919 32.2307 55.1919C30.4556 55.1919 29.0166 53.753 29.0166 51.9778Z" fill="#717579"/>
<path d="M51.0076 72.4032C52.7827 72.4032 54.2218 70.9641 54.2218 69.189C54.2218 67.4139 52.7827 65.9749 51.0076 65.9749C49.2325 65.9749 47.7935 67.4139 47.7935 69.189C47.7935 70.9641 49.2325 72.4032 51.0076 72.4032Z" fill="#FED035"/>
</svg>
