<svg width="22" height="22" viewBox="0 0 22 22" fill="none" xmlns="http://www.w3.org/2000/svg">
<path d="M11 7.79625C9.22625 7.79625 7.79625 9.24 7.79625 11C7.79625 12.76 9.24 14.2037 11 14.2037C12.76 14.2037 14.2037 12.76 14.2037 11C14.2037 9.24 12.76 7.79625 11 7.79625ZM20.625 11C20.625 9.66625 20.625 8.36 20.5562 7.02625C20.4875 5.48625 20.13 4.11125 19.0025 2.9975C17.875 1.87 16.5138 1.5125 14.9738 1.44375C13.64 1.375 12.3337 1.375 11 1.375C9.66625 1.375 8.36 1.375 7.02625 1.44375C5.48625 1.5125 4.11125 1.87 2.9975 2.9975C1.87 4.125 1.5125 5.48625 1.44375 7.02625C1.375 8.36 1.375 9.66625 1.375 11C1.375 12.3337 1.375 13.64 1.44375 14.9738C1.5125 16.5138 1.87 17.8888 2.9975 19.0025C4.125 20.13 5.48625 20.4875 7.02625 20.5562C8.36 20.625 9.66625 20.625 11 20.625C12.3337 20.625 13.64 20.625 14.9738 20.5562C16.5138 20.4875 17.8888 20.13 19.0025 19.0025C20.13 17.875 20.4875 16.5138 20.5562 14.9738C20.6388 13.6538 20.625 12.3337 20.625 11ZM11 15.9363C8.26375 15.9363 6.06375 13.7362 6.06375 11C6.06375 8.26375 8.26375 6.06375 11 6.06375C13.7362 6.06375 15.9363 8.26375 15.9363 11C15.9363 13.7362 13.7362 15.9363 11 15.9363ZM16.1425 7.0125C15.51 7.0125 14.9875 6.50375 14.9875 5.8575C14.9875 5.21125 15.4963 4.7025 16.1425 4.7025C16.7887 4.7025 17.2975 5.21125 17.2975 5.8575C17.301 6.00811 17.2735 6.15783 17.2167 6.29738C17.16 6.43693 17.0751 6.56333 16.9675 6.66875C16.8621 6.77638 16.7357 6.8612 16.5961 6.91797C16.4566 6.97473 16.3069 7.00223 16.1562 6.99875L16.1425 7.0125Z" fill="black"/>
</svg>
