<svg width="61" height="49" viewBox="0 0 61 49" fill="none" xmlns="http://www.w3.org/2000/svg">
<path d="M34.7778 38.9247C34.7203 38.9247 34.6623 38.9229 34.6042 38.9191C33.5196 38.8492 32.5968 38.1363 32.2538 37.1027L26.7419 20.4354L22.0731 31.4567C21.6846 32.374 20.8272 32.9924 19.8355 33.0704C18.8434 33.1475 17.9015 32.6715 17.3749 31.8267L12.3223 23.7421C11.5625 22.5263 11.9321 20.9249 13.1479 20.1651C14.3636 19.4055 15.9651 19.7748 16.725 20.9907L19.1944 24.942L24.5892 12.2069C25.0181 11.194 26.0429 10.5436 27.1416 10.5873C28.2397 10.6317 29.2099 11.3639 29.5558 12.4092L35.2145 29.5204L39.1557 21.3556C39.6675 20.3377 40.7089 19.7172 41.8333 19.7528L47.6144 19.828C49.0479 19.8466 50.195 21.0239 50.1763 22.4574C50.1578 23.8908 48.9797 25.0389 47.5469 25.0193L43.179 24.9626L37.1659 37.4217C36.7194 38.3481 35.7947 38.9247 34.7778 38.9247ZM32.4909 35.1637C32.4904 35.1646 32.4899 35.1656 32.4896 35.1664L32.4909 35.1637ZM21.7763 29.0732L21.7793 29.078C21.7783 29.0764 21.7772 29.0748 21.7763 29.0732ZM49.2508 46.3835C49.2508 44.9499 48.0885 43.7876 46.6549 43.7876H14.2893C9.41937 43.7876 5.45737 39.8275 5.45737 34.96V14.4326C5.45737 9.56499 9.41937 5.60499 14.2893 5.60499H46.6549C51.5247 5.60499 55.4869 9.56511 55.4869 14.4326V34.96C55.4869 36.0548 55.2895 37.122 54.9003 38.1319C54.3848 39.4698 55.0513 40.9721 56.389 41.4876C57.7273 42.0033 59.2292 41.3366 59.7447 39.9989C60.3643 38.3909 60.6785 36.6956 60.6785 34.96V14.4326C60.6785 6.70222 54.3875 0.413254 46.6548 0.413254H14.2893C6.5566 0.413136 0.265625 6.70222 0.265625 14.4325V34.9599C0.265625 42.6903 6.5566 48.9794 14.2893 48.9794H46.6549C48.0886 48.9794 49.2508 47.8171 49.2508 46.3835Z" fill="#717579"/>
</svg>
