<svg width="28" height="28" viewBox="0 0 28 28" fill="none" xmlns="http://www.w3.org/2000/svg">
<path d="M16.5 6C16.5 5.33696 16.2366 4.70107 15.7678 4.23223C15.2989 3.76339 14.663 3.5 14 3.5C13.337 3.5 12.7011 3.76339 12.2322 4.23223C11.7634 4.70107 11.5 5.33696 11.5 6H16.5ZM10 6C10 4.93913 10.4214 3.92172 11.1716 3.17157C11.9217 2.42143 12.9391 2 14 2C15.0609 2 16.0783 2.42143 16.8284 3.17157C17.5786 3.92172 18 4.93913 18 6H24.25C24.4489 6 24.6397 6.07902 24.7803 6.21967C24.921 6.36032 25 6.55109 25 6.75C25 6.94891 24.921 7.13968 24.7803 7.28033C24.6397 7.42098 24.4489 7.5 24.25 7.5H22.94L22.432 13.595C20.8069 12.9037 18.9899 12.8081 17.3012 13.325C15.6125 13.8419 14.1603 14.9382 13.2005 16.4207C12.2408 17.9032 11.8349 19.6768 12.0545 21.4292C12.2741 23.1815 13.1051 24.8002 14.401 26H10.512C9.44599 25.9999 8.41894 25.5992 7.6345 24.8774C6.85007 24.1556 6.36554 23.1653 6.277 22.103L5.06 7.5H3.75C3.55109 7.5 3.36032 7.42098 3.21967 7.28033C3.07902 7.13968 3 6.94891 3 6.75C3 6.55109 3.07902 6.36032 3.21967 6.21967C3.36032 6.07902 3.55109 6 3.75 6H10ZM26 20.5C26 22.2239 25.3152 23.8772 24.0962 25.0962C22.8772 26.3152 21.2239 27 19.5 27C17.7761 27 16.1228 26.3152 14.9038 25.0962C13.6848 23.8772 13 22.2239 13 20.5C13 18.7761 13.6848 17.1228 14.9038 15.9038C16.1228 14.6848 17.7761 14 19.5 14C21.2239 14 22.8772 14.6848 24.0962 15.9038C25.3152 17.1228 26 18.7761 26 20.5ZM19.5 19.793L16.854 17.146C16.7601 17.0521 16.6328 16.9994 16.5 16.9994C16.3672 16.9994 16.2399 17.0521 16.146 17.146C16.0521 17.2399 15.9994 17.3672 15.9994 17.5C15.9994 17.6328 16.0521 17.7601 16.146 17.854L18.793 20.5L16.146 23.146C16.0521 23.2399 15.9994 23.3672 15.9994 23.5C15.9994 23.6328 16.0521 23.7601 16.146 23.854C16.2399 23.9479 16.3672 24.0006 16.5 24.0006C16.6328 24.0006 16.7601 23.9479 16.854 23.854L19.5 21.207L22.146 23.854C22.2399 23.9479 22.3672 24.0006 22.5 24.0006C22.6328 24.0006 22.7601 23.9479 22.854 23.854C22.9479 23.7601 23.0006 23.6328 23.0006 23.5C23.0006 23.3672 22.9479 23.2399 22.854 23.146L20.207 20.5L22.854 17.854C22.9479 17.7601 23.0006 17.6328 23.0006 17.5C23.0006 17.3672 22.9479 17.2399 22.854 17.146C22.7601 17.0521 22.6328 16.9994 22.5 16.9994C22.3672 16.9994 22.2399 17.0521 22.146 17.146L19.5 19.793Z" fill="#FF0000"/>
</svg>
