<svg width="24" height="24" viewBox="0 0 24 24" fill="none" xmlns="http://www.w3.org/2000/svg">
<path d="M12 2C6.477 2 2 6.477 2 12C2 17.523 6.477 22 12 22C17.523 22 22 17.523 22 12C22 6.477 17.523 2 12 2ZM12 20L14 18L15 17V15H13V14L12 13H9V16L11 18V19.931C7.06 19.436 4 16.072 4 12L5 13H7V11H9L12 8V6H10L9 5V4.589C10.9232 3.80531 13.0768 3.80531 15 4.589V6L14 7V9L15 10L18.13 6.87C18.8909 7.78125 19.4395 8.85043 19.736 10H18L16 12V14L17 15H19L19.286 15.286C18.029 18.061 15.239 20 12 20Z" fill="black"/>
</svg>
