<svg width="20" height="21" viewBox="0 0 20 21" fill="none" xmlns="http://www.w3.org/2000/svg">
<path d="M2.85714 0.428589C1.28125 0.428589 0 1.70984 0 3.28573V17.5714C0 19.1473 1.28125 20.4286 2.85714 20.4286H17.1429C18.7188 20.4286 20 19.1473 20 17.5714V3.28573C20 1.70984 18.7188 0.428589 17.1429 0.428589H2.85714ZM16.1205 4.17859L11.4866 9.47323L16.9375 16.6786H12.6696L9.33036 12.3081L5.50446 16.6786H3.38393L8.33929 11.0134L3.11161 4.17859H7.48661L10.5089 8.17412L14 4.17859H16.1205ZM14.433 15.4107L6.84821 5.37948H5.58482L13.2545 15.4107H14.4286H14.433Z" fill="black"/>
</svg>
